<svg xmlns="http://www.w3.org/2000/svg" viewBox="0 0 320 240" preserveAspectRatio="xMidYMid slice" shape-rendering="crispEdges">
  <defs>
    <linearGradient id="sky" x1="0" y1="0" x2="0" y2="1">
      <stop offset="0" stop-color="#f3e2b8"/>
      <stop offset="0.45" stop-color="#ead6a4"/>
      <stop offset="1" stop-color="#d8c888"/>
    </linearGradient>
    <pattern id="dither" width="4" height="4" patternUnits="userSpaceOnUse">
      <rect width="4" height="4" fill="#e8d4a0"/>
      <rect width="1" height="1" fill="#f4e8c4"/>
      <rect x="2" y="2" width="1" height="1" fill="#f4e8c4"/>
    </pattern>
    <pattern id="grass" width="8" height="8" patternUnits="userSpaceOnUse">
      <rect width="8" height="8" fill="#5a9840"/>
      <rect x="1" y="2" width="1" height="2" fill="#7ab050"/>
      <rect x="4" y="5" width="1" height="2" fill="#3e782c"/>
      <rect x="6" y="1" width="1" height="1" fill="#c8b060"/>
      <rect x="2" y="6" width="1" height="1" fill="#d8c878"/>
    </pattern>
  </defs>
  <rect width="320" height="240" fill="url(#sky)"/>
  <rect width="320" height="88" fill="url(#dither)" opacity="0.55"/>
  <ellipse cx="48" cy="42" rx="28" ry="12" fill="#fff6e4"/>
  <ellipse cx="62" cy="40" rx="18" ry="10" fill="#fffdf6"/>
  <ellipse cx="36" cy="40" rx="12" ry="8" fill="#f0e2c0"/>
  <ellipse cx="118" cy="30" rx="22" ry="10" fill="#fff8ea"/>
  <ellipse cx="128" cy="28" rx="14" ry="8" fill="#fffdf6"/>
  <ellipse cx="250" cy="38" rx="26" ry="11" fill="#fff4dc"/>
  <ellipse cx="262" cy="36" rx="16" ry="8" fill="#fffaf0"/>
  <path d="M0 118 Q40 108 90 114 Q150 122 210 112 Q270 104 320 110 L320 240 L0 240 Z" fill="#6aa44c"/>
  <path d="M0 138 Q70 126 140 136 Q210 146 320 130 L320 240 L0 240 Z" fill="url(#grass)"/>
  <path d="M0 168 Q80 158 160 166 Q240 176 320 162 L320 240 L0 240 Z" fill="#4e8838"/>
  <ellipse cx="168" cy="172" rx="46" ry="16" fill="#c4a068"/>
  <ellipse cx="168" cy="170" rx="34" ry="10" fill="#b89058"/>
  <rect y="198" width="320" height="42" fill="#d4c8b0"/>
  <rect y="214" width="320" height="26" fill="#c8bca4"/>
  <g fill="#3c7c38">
    <ellipse cx="28" cy="128" rx="10" ry="14"/><ellipse cx="52" cy="126" rx="8" ry="12"/>
    <ellipse cx="76" cy="130" rx="9" ry="13"/><ellipse cx="98" cy="127" rx="7" ry="11"/>
    <ellipse cx="230" cy="124" rx="9" ry="13"/><ellipse cx="252" cy="126" rx="11" ry="15"/>
    <ellipse cx="274" cy="123" rx="8" ry="12"/><ellipse cx="296" cy="128" rx="10" ry="14"/>
  </g>
  <rect x="18" y="132" width="5" height="22" fill="#6b4420"/>
  <ellipse cx="20" cy="122" rx="16" ry="20" fill="#2f6a2c"/>
  <ellipse cx="12" cy="116" rx="10" ry="12" fill="#4e8c40"/>
  <ellipse cx="28" cy="114" rx="11" ry="13" fill="#245820"/>
  <rect x="46" y="136" width="4" height="18" fill="#6b4420"/>
  <ellipse cx="48" cy="128" rx="12" ry="16" fill="#3c7c38"/>
  <ellipse cx="42" cy="122" rx="8" ry="10" fill="#68a050"/>
  <rect x="70" y="140" width="4" height="16" fill="#6b4420"/>
  <ellipse cx="72" cy="132" rx="11" ry="14" fill="#2f6a2c"/>
  <rect x="236" y="128" width="6" height="28" fill="#6b4420"/>
  <ellipse cx="239" cy="116" rx="18" ry="24" fill="#2c6828"/>
  <ellipse cx="226" cy="108" rx="12" ry="16" fill="#4e8c40"/>
  <ellipse cx="250" cy="106" rx="13" ry="17" fill="#245820"/>
  <ellipse cx="239" cy="100" rx="10" ry="12" fill="#68a050"/>
  <rect x="268" y="134" width="5" height="22" fill="#6b4420"/>
  <ellipse cx="270" cy="122" rx="14" ry="18" fill="#3c7c38"/>
  <ellipse cx="262" cy="116" rx="9" ry="11" fill="#68a050"/>
  <ellipse cx="278" cy="114" rx="10" ry="12" fill="#2c6828"/>
  <rect x="294" y="138" width="4" height="18" fill="#6b4420"/>
  <ellipse cx="296" cy="128" rx="11" ry="14" fill="#2f6a2c"/>
  <g fill="#e8d8a0">
    <rect x="148" y="176" width="1" height="1"/><rect x="160" y="180" width="1" height="1"/>
    <rect x="176" y="178" width="1" height="1"/><rect x="190" y="182" width="1" height="1"/>
    <rect x="132" y="184" width="1" height="1"/><rect x="204" y="176" width="1" height="1"/>
  </g>
  <g fill="#d87890">
    <rect x="154" y="188" width="1" height="1"/><rect x="186" y="190" width="1" height="1"/>
    <rect x="118" y="186" width="1" height="1"/>
  </g>
</svg>
